<svg xmlns="http://www.w3.org/2000/svg" fill="none" viewBox="0 0 197 64">
    <g clip-path="url(#a)">
        <path fill="#fff"
            d="M0 13.323V.228h3.15l3.97 8.196c.087.192.2.438.334.745s.262.622.41.952c.146.33.262.63.362.897h.134c.102-.241.215-.524.344-.82.128-.297.262-.615.399-.924.136-.31.262-.582.365-.81L13.435.228h3.111v13.095h-2.08V4.118c0-.297.014-.585.022-.879.008-.294 0-.545 0-.76h-.134c-.076.175-.166.385-.263.626-.097.242-.205.488-.307.735a6.58 6.58 0 0 1-.305.658l-4.235 8.825H7.202L2.946 4.498c-.113-.241-.226-.49-.334-.742a33.667 33.667 0 0 1-.296-.716 50.75 50.75 0 0 0-.229-.562h-.152c.013.202.021.444.029.724.008.281 0 .57 0 .866v9.255H0ZM20.645 13.323V.228h12.901v1.773h-10.84v3.756h9.75v1.752h-9.75v4.06h10.993v1.754H20.645ZM37.227 13.323V.228h2.003l8.226 8.33c.14.129.305.296.496.506.192.21.384.415.583.62.2.204.365.387.504.553h.152c0-.242-.02-.543-.028-.908-.008-.364 0-.682 0-.962V.236h2.003v13.095h-1.909L41 4.918a41.857 41.857 0 0 1-1.64-1.755h-.135v10.16h-1.998ZM59.667 13.323V2.046h-5.915V.21h13.931v1.836h-5.941v11.277h-2.075ZM77.55 13.56a11.355 11.355 0 0 1-4.419-.787 6.208 6.208 0 0 1-2.862-2.287 6.552 6.552 0 0 1-1.003-3.698c0-1.474.335-2.713 1.003-3.717A6.209 6.209 0 0 1 73.131.784a11.353 11.353 0 0 1 4.419-.787 11.33 11.33 0 0 1 4.426.787 6.206 6.206 0 0 1 2.852 2.287c.67 1.006 1.004 2.244 1.003 3.717a6.52 6.52 0 0 1-1.003 3.698 6.205 6.205 0 0 1-2.852 2.287 11.33 11.33 0 0 1-4.426.787Zm0-1.752c.819.006 1.636-.09 2.431-.286a6.019 6.019 0 0 0 1.956-.868 4.025 4.025 0 0 0 1.313-1.498c.327-.676.487-1.42.467-2.172v-.42c.02-.748-.14-1.49-.467-2.163a4.054 4.054 0 0 0-1.313-1.487 5.842 5.842 0 0 0-1.956-.858 10.128 10.128 0 0 0-2.431-.275c-.816-.006-1.63.086-2.424.275a5.853 5.853 0 0 0-1.966.858c-.551.378-.997.89-1.297 1.487a4.715 4.715 0 0 0-.46 2.164v.42c-.02.75.138 1.493.46 2.171.3.604.752 1.12 1.313 1.498a6.141 6.141 0 0 0 1.964.868 9.803 9.803 0 0 0 2.41.278v.008ZM89.38 13.323V.228h9.846a4.207 4.207 0 0 1 2.177.525 3.34 3.34 0 0 1 1.312 1.419 4.51 4.51 0 0 1 .439 2c.009.783-.21 1.552-.63 2.212a3.708 3.708 0 0 1-1.87 1.468l2.844 5.471h-2.329l-2.594-5.109h-7.136v5.11H89.38Zm2.061-6.86h7.289a2.282 2.282 0 0 0 1.717-.63 2.255 2.255 0 0 0 .612-1.64 2.33 2.33 0 0 0-.279-1.164 1.855 1.855 0 0 0-.787-.76 2.712 2.712 0 0 0-1.26-.263h-7.289l-.003 4.456ZM106.612 13.323V.228h2.061v13.095h-2.061ZM111.324 13.323 117.982.228h2.405l6.68 13.095h-2.29l-1.575-3.087h-8.163l-1.575 3.087h-2.14Zm4.561-4.802h6.469l-1.927-3.87a17.502 17.502 0 0 1-.286-.601c-.113-.25-.234-.51-.355-.787a13.656 13.656 0 0 0-.344-.743c-.11-.217-.186-.377-.236-.466h-.155c-.126.262-.263.571-.428.915-.165.344-.31.666-.449.97-.139.305-.262.54-.344.706l-1.945 3.876ZM17.276 63.316V32.5H0v-8.317h44.303l-8.325 8.317h-8.893v30.815h-9.81ZM70.419 64c-5.21 0-9.723-.798-13.543-2.395-3.819-1.596-6.756-3.902-8.81-6.918-2.052-3.018-3.078-6.673-3.078-10.966 0-4.292 1.026-7.947 3.077-10.963 2.053-3.018 4.99-5.315 8.811-6.893 3.821-1.577 8.336-2.363 13.543-2.36 5.25 0 9.774.787 13.568 2.36 3.795 1.574 6.723 3.872 8.783 6.893 2.053 3.02 3.08 6.674 3.08 10.963 0 4.29-1.027 7.944-3.08 10.966-2.053 3.018-4.98 5.324-8.783 6.918C80.186 63.2 75.663 63.998 70.42 64Zm0-7.805a23.101 23.101 0 0 0 6.157-.769 14.96 14.96 0 0 0 4.846-2.25 9.983 9.983 0 0 0 3.161-3.73 11.336 11.336 0 0 0 1.114-5.098v-1.312a11.146 11.146 0 0 0-1.114-5.07 10.066 10.066 0 0 0-3.15-3.687 15.063 15.063 0 0 0-4.847-2.25c-2.008-.53-4.08-.79-6.157-.769-2.078-.02-4.15.238-6.16.769a15.063 15.063 0 0 0-4.846 2.25 10.066 10.066 0 0 0-3.164 3.703 11.181 11.181 0 0 0-1.113 5.07v1.312a11.37 11.37 0 0 0 1.113 5.098 9.983 9.983 0 0 0 3.164 3.73 14.955 14.955 0 0 0 4.847 2.25c2.006.526 4.075.779 6.149.753ZM101.778 63.316V24.184h29.366c2.543 0 4.766.551 6.669 1.653a11.618 11.618 0 0 1 4.448 4.584c1.066 1.957 1.599 4.207 1.599 6.751a14.04 14.04 0 0 1-1.626 6.806 11.612 11.612 0 0 1-4.534 4.642c-1.938 1.102-4.181 1.653-6.729 1.653h-19.329v3.189l-9.864 9.853Zm9.864-20.849h16.593c1.901 0 3.364-.455 4.39-1.366 1.026-.911 1.539-2.202 1.541-3.874a5.487 5.487 0 0 0-.685-2.82 4.657 4.657 0 0 0-2.024-1.835 7.29 7.29 0 0 0-3.222-.653h-16.593v10.548ZM171.569 64c-5.209 0-9.723-.798-13.542-2.395-3.819-1.596-6.755-3.902-8.809-6.918-2.053-3.018-3.079-6.673-3.079-10.966 0-4.292 1.026-7.947 3.079-10.963 2.054-3.018 4.99-5.315 8.809-6.893 3.819-1.577 8.333-2.363 13.542-2.36 5.251 0 9.775.787 13.572 2.36 3.796 1.574 6.723 3.872 8.779 6.893 2.054 3.02 3.08 6.674 3.08 10.963 0 4.29-1.026 7.944-3.08 10.966-2.053 3.018-4.979 5.324-8.779 6.918-3.8 1.595-8.324 2.393-13.572 2.395Zm0-7.805a23.099 23.099 0 0 0 6.157-.769 14.935 14.935 0 0 0 4.847-2.25 9.987 9.987 0 0 0 3.166-3.73 11.365 11.365 0 0 0 1.111-5.098v-1.312a11.186 11.186 0 0 0-1.111-5.07 10.067 10.067 0 0 0-3.166-3.687 15.04 15.04 0 0 0-4.847-2.25 23.2 23.2 0 0 0-6.157-.769 23.22 23.22 0 0 0-6.159.769 15.092 15.092 0 0 0-4.847 2.25 10.061 10.061 0 0 0-3.15 3.703 11.173 11.173 0 0 0-1.111 5.07v1.312c-.03 1.762.35 3.508 1.111 5.098a9.98 9.98 0 0 0 3.15 3.73 14.976 14.976 0 0 0 4.847 2.25c2.01.526 4.082.78 6.159.753Z" />
        <path fill="url(#b)"
            d="M0 13.323V.228h3.15l3.97 8.196c.087.192.2.438.334.745s.262.622.41.952c.146.33.262.63.362.897h.134c.102-.241.215-.524.344-.82.128-.297.262-.615.399-.924.136-.31.262-.582.365-.81L13.435.228h3.111v13.095h-2.08V4.118c0-.297.014-.585.022-.879.008-.294 0-.545 0-.76h-.134c-.076.175-.166.385-.263.626-.097.242-.205.488-.307.735a6.58 6.58 0 0 1-.305.658l-4.235 8.825H7.202L2.946 4.498c-.113-.241-.226-.49-.334-.742a33.667 33.667 0 0 1-.296-.716 50.75 50.75 0 0 0-.229-.562h-.152c.013.202.021.444.029.724.008.281 0 .57 0 .866v9.255H0Z" />
        <path fill="url(#c)"
            d="M20.645 13.323V.228h12.901v1.773h-10.84v3.756h9.75v1.752h-9.75v4.06h10.993v1.754H20.645Z" />
        <path fill="url(#d)"
            d="M37.227 13.323V.228h2.003l8.226 8.33c.14.129.305.296.496.506.192.21.384.415.583.62.2.204.365.387.504.553h.152c0-.242-.02-.543-.028-.908-.008-.364 0-.682 0-.962V.236h2.003v13.095h-1.909L41 4.918a41.857 41.857 0 0 1-1.64-1.755h-.135v10.16h-1.998Z" />
        <path fill="url(#e)" d="M59.667 13.323V2.046h-5.915V.21h13.931v1.836h-5.941v11.277h-2.075Z" />
        <path fill="url(#f)"
            d="M77.55 13.56a11.355 11.355 0 0 1-4.419-.787 6.208 6.208 0 0 1-2.862-2.287 6.552 6.552 0 0 1-1.003-3.698c0-1.474.335-2.713 1.003-3.717A6.209 6.209 0 0 1 73.131.784a11.353 11.353 0 0 1 4.419-.787 11.33 11.33 0 0 1 4.426.787 6.206 6.206 0 0 1 2.852 2.287c.67 1.006 1.004 2.244 1.003 3.717a6.52 6.52 0 0 1-1.003 3.698 6.205 6.205 0 0 1-2.852 2.287 11.33 11.33 0 0 1-4.426.787Zm0-1.752c.819.006 1.636-.09 2.431-.286a6.019 6.019 0 0 0 1.956-.868 4.025 4.025 0 0 0 1.313-1.498c.327-.676.487-1.42.467-2.172v-.42c.02-.748-.14-1.49-.467-2.163a4.054 4.054 0 0 0-1.313-1.487 5.842 5.842 0 0 0-1.956-.858 10.128 10.128 0 0 0-2.431-.275c-.816-.006-1.63.086-2.424.275a5.853 5.853 0 0 0-1.966.858c-.551.378-.997.89-1.297 1.487a4.715 4.715 0 0 0-.46 2.164v.42c-.02.75.138 1.493.46 2.171.3.604.752 1.12 1.313 1.498a6.141 6.141 0 0 0 1.964.868 9.803 9.803 0 0 0 2.41.278v.008Z" />
        <path fill="url(#g)"
            d="M89.38 13.323V.228h9.846a4.207 4.207 0 0 1 2.177.525 3.34 3.34 0 0 1 1.312 1.419 4.51 4.51 0 0 1 .439 2c.009.783-.21 1.552-.63 2.212a3.708 3.708 0 0 1-1.87 1.468l2.844 5.471h-2.329l-2.594-5.109h-7.136v5.11H89.38Zm2.061-6.86h7.289a2.282 2.282 0 0 0 1.717-.63 2.255 2.255 0 0 0 .612-1.64 2.33 2.33 0 0 0-.279-1.164 1.855 1.855 0 0 0-.787-.76 2.712 2.712 0 0 0-1.26-.263h-7.289l-.003 4.456Z" />
        <path fill="url(#h)" d="M106.612 13.323V.228h2.061v13.095h-2.061Z" />
        <path fill="url(#i)"
            d="M111.324 13.323 117.982.228h2.405l6.68 13.095h-2.29l-1.575-3.087h-8.163l-1.575 3.087h-2.14Zm4.561-4.802h6.469l-1.927-3.87a17.502 17.502 0 0 1-.286-.601c-.113-.25-.234-.51-.355-.787a13.656 13.656 0 0 0-.344-.743c-.11-.217-.186-.377-.236-.466h-.155c-.126.262-.263.571-.428.915-.165.344-.31.666-.449.97-.139.305-.262.54-.344.706l-1.945 3.876Z" />
        <path fill="url(#j)"
            d="M17.276 63.316V32.5H0v-8.317h44.303l-8.325 8.317h-8.893v30.815h-9.81Z" />
        <path fill="url(#k)"
            d="M70.419 64c-5.21 0-9.723-.798-13.543-2.395-3.819-1.596-6.756-3.902-8.81-6.918-2.052-3.018-3.078-6.673-3.078-10.966 0-4.292 1.026-7.947 3.077-10.963 2.053-3.018 4.99-5.315 8.811-6.893 3.821-1.577 8.336-2.363 13.543-2.36 5.25 0 9.774.787 13.568 2.36 3.795 1.574 6.723 3.872 8.783 6.893 2.053 3.02 3.08 6.674 3.08 10.963 0 4.29-1.027 7.944-3.08 10.966-2.053 3.018-4.98 5.324-8.783 6.918C80.186 63.2 75.663 63.998 70.42 64Zm0-7.805a23.101 23.101 0 0 0 6.157-.769 14.96 14.96 0 0 0 4.846-2.25 9.983 9.983 0 0 0 3.161-3.73 11.336 11.336 0 0 0 1.114-5.098v-1.312a11.146 11.146 0 0 0-1.114-5.07 10.066 10.066 0 0 0-3.15-3.687 15.063 15.063 0 0 0-4.847-2.25c-2.008-.53-4.08-.79-6.157-.769-2.078-.02-4.15.238-6.16.769a15.063 15.063 0 0 0-4.846 2.25 10.066 10.066 0 0 0-3.164 3.703 11.181 11.181 0 0 0-1.113 5.07v1.312a11.37 11.37 0 0 0 1.113 5.098 9.983 9.983 0 0 0 3.164 3.73 14.955 14.955 0 0 0 4.847 2.25c2.006.526 4.075.779 6.149.753Z" />
        <path fill="url(#l)"
            d="M101.778 63.316V24.184h29.366c2.543 0 4.766.551 6.669 1.653a11.618 11.618 0 0 1 4.448 4.584c1.066 1.957 1.599 4.207 1.599 6.751a14.04 14.04 0 0 1-1.626 6.806 11.612 11.612 0 0 1-4.534 4.642c-1.938 1.102-4.181 1.653-6.729 1.653h-19.329v3.189l-9.864 9.853Zm9.864-20.849h16.593c1.901 0 3.364-.455 4.39-1.366 1.026-.911 1.539-2.202 1.541-3.874a5.487 5.487 0 0 0-.685-2.82 4.657 4.657 0 0 0-2.024-1.835 7.29 7.29 0 0 0-3.222-.653h-16.593v10.548Z" />
        <path fill="url(#m)"
            d="M171.569 64c-5.209 0-9.723-.798-13.542-2.395-3.819-1.596-6.755-3.902-8.809-6.918-2.053-3.018-3.079-6.673-3.079-10.966 0-4.292 1.026-7.947 3.079-10.963 2.054-3.018 4.99-5.315 8.809-6.893 3.819-1.577 8.333-2.363 13.542-2.36 5.251 0 9.775.787 13.572 2.36 3.796 1.574 6.723 3.872 8.779 6.893 2.054 3.02 3.08 6.674 3.08 10.963 0 4.29-1.026 7.944-3.08 10.966-2.053 3.018-4.979 5.324-8.779 6.918-3.8 1.595-8.324 2.393-13.572 2.395Zm0-7.805a23.099 23.099 0 0 0 6.157-.769 14.935 14.935 0 0 0 4.847-2.25 9.987 9.987 0 0 0 3.166-3.73 11.365 11.365 0 0 0 1.111-5.098v-1.312a11.186 11.186 0 0 0-1.111-5.07 10.067 10.067 0 0 0-3.166-3.687 15.04 15.04 0 0 0-4.847-2.25 23.2 23.2 0 0 0-6.157-.769 23.22 23.22 0 0 0-6.159.769 15.092 15.092 0 0 0-4.847 2.25 10.061 10.061 0 0 0-3.15 3.703 11.173 11.173 0 0 0-1.111 5.07v1.312c-.03 1.762.35 3.508 1.111 5.098a9.98 9.98 0 0 0 3.15 3.73 14.976 14.976 0 0 0 4.847 2.25c2.01.526 4.082.78 6.159.753Z" />
    </g>
    <defs>
        <linearGradient id="b" x1="98.499" x2="98.499" y1="5.266" y2="293.828"
            gradientUnits="userSpaceOnUse">
            <stop stop-color="#fff" />
            <stop offset=".19" stop-color="#C2CADD" />
        </linearGradient>
        <linearGradient id="c" x1="98.498" x2="98.498" y1="5.266" y2="293.828"
            gradientUnits="userSpaceOnUse">
            <stop stop-color="#fff" />
            <stop offset=".19" stop-color="#C2CADD" />
        </linearGradient>
        <linearGradient id="d" x1="98.499" x2="98.499" y1="5.266" y2="293.828"
            gradientUnits="userSpaceOnUse">
            <stop stop-color="#fff" />
            <stop offset=".19" stop-color="#C2CADD" />
        </linearGradient>
        <linearGradient id="e" x1="98.499" x2="98.499" y1="5.266" y2="293.828"
            gradientUnits="userSpaceOnUse">
            <stop stop-color="#fff" />
            <stop offset=".19" stop-color="#C2CADD" />
        </linearGradient>
        <linearGradient id="f" x1="98.499" x2="98.499" y1="5.266" y2="293.828"
            gradientUnits="userSpaceOnUse">
            <stop stop-color="#fff" />
            <stop offset=".19" stop-color="#C2CADD" />
        </linearGradient>
        <linearGradient id="g" x1="98.499" x2="98.499" y1="5.266" y2="293.828"
            gradientUnits="userSpaceOnUse">
            <stop stop-color="#fff" />
            <stop offset=".19" stop-color="#C2CADD" />
        </linearGradient>
        <linearGradient id="h" x1="98.499" x2="98.499" y1="5.266" y2="293.828"
            gradientUnits="userSpaceOnUse">
            <stop stop-color="#fff" />
            <stop offset=".19" stop-color="#C2CADD" />
        </linearGradient>
        <linearGradient id="i" x1="98.499" x2="98.499" y1="5.266" y2="293.828"
            gradientUnits="userSpaceOnUse">
            <stop stop-color="#fff" />
            <stop offset=".19" stop-color="#C2CADD" />
        </linearGradient>
        <linearGradient id="j" x1="98.499" x2="98.499" y1="5.266" y2="293.828"
            gradientUnits="userSpaceOnUse">
            <stop stop-color="#fff" />
            <stop offset=".19" stop-color="#C2CADD" />
        </linearGradient>
        <linearGradient id="k" x1="98.499" x2="98.499" y1="5.266" y2="293.828"
            gradientUnits="userSpaceOnUse">
            <stop stop-color="#fff" />
            <stop offset=".19" stop-color="#C2CADD" />
        </linearGradient>
        <linearGradient id="l" x1="98.499" x2="98.499" y1="5.266" y2="293.828"
            gradientUnits="userSpaceOnUse">
            <stop stop-color="#fff" />
            <stop offset=".19" stop-color="#C2CADD" />
        </linearGradient>
        <linearGradient id="m" x1="98.499" x2="98.499" y1="5.266" y2="293.828"
            gradientUnits="userSpaceOnUse">
            <stop stop-color="#fff" />
            <stop offset=".19" stop-color="#C2CADD" />
        </linearGradient>
        <clipPath id="a">
            <path fill="#fff" d="M0 0h197v64H0z" />
        </clipPath>
    </defs>
</svg>
