<svg xmlns="http://www.w3.org/2000/svg" fill="none" viewBox="0 0 381 97">
  <g clip-path="url(#a)">
    <path fill="#000" d="M27.804 97a80.669 80.669 0 0 1-10.896-.688c-3.358-.46-6.315-1.295-8.872-2.502C5.48 92.602 3.501 90.923 2.1 88.77.699 86.621-.001 83.878 0 80.542v-.363a.818.818 0 0 1 .072-.362h12.237a2.605 2.605 0 0 0-.073.651v.8a4.241 4.241 0 0 0 1.81 3.587c1.207.895 2.942 1.546 5.206 1.955 2.632.441 5.298.647 7.967.617 1.301 0 2.616-.049 3.945-.146a36.978 36.978 0 0 0 3.837-.471 16.629 16.629 0 0 0 3.295-.906 6.505 6.505 0 0 0 2.316-1.485 2.975 2.975 0 0 0 .868-2.14c0-1.158-.567-2.088-1.7-2.79-1.134-.703-2.653-1.27-4.556-1.705-1.905-.435-4.053-.809-6.444-1.123-2.39-.314-4.863-.676-7.42-1.086a60.043 60.043 0 0 1-7.422-1.668 27.763 27.763 0 0 1-6.444-2.754 13.414 13.414 0 0 1-4.555-4.387c-1.136-1.788-1.704-3.987-1.702-6.598 0-2.415.603-4.541 1.81-6.379 1.208-1.837 2.943-3.384 5.206-4.64 2.27-1.259 5.008-2.19 8.218-2.791a58.845 58.845 0 0 1 10.826-.908c4.049 0 7.645.326 10.788.98 3.144.652 5.786 1.593 7.928 2.822 2.147 1.234 3.764 2.754 4.852 4.561a11.82 11.82 0 0 1 1.629 6.199v1.086H40.328V60.3c0-1.063-.52-1.993-1.557-2.791-1.039-.798-2.485-1.439-4.338-1.922a25.943 25.943 0 0 0-6.481-.726c-3.233 0-5.864.206-7.89.617-2.028.411-3.525.967-4.49 1.668-.966.702-1.45 1.463-1.45 2.283 0 1.064.568 1.91 1.703 2.539 1.135.628 2.654 1.135 4.555 1.52 1.906.386 4.054.737 6.444 1.051 2.39.314 4.864.688 7.422 1.123a77.19 77.19 0 0 1 7.422 1.63 25.092 25.092 0 0 1 6.444 2.72 14.232 14.232 0 0 1 4.555 4.316c1.132 1.715 1.7 3.854 1.7 6.415 0 3.91-1.134 7.063-3.402 9.46-2.27 2.398-5.395 4.126-9.377 5.184C37.612 96.463 33.018 97 27.804 97ZM61.035 96.13V55.007l8.676-8.688h42.295v9.86H73.559v9.789h33.957v9.715H73.559v10.513h39.026v9.932h-51.55ZM148.067 97c-10.039 0-17.582-2.127-22.627-6.38-5.045-4.255-7.566-10.707-7.565-19.358 0-5.656 1.291-10.405 3.874-14.247 2.582-3.843 6.323-6.73 11.222-8.664 4.9-1.933 10.778-2.9 17.631-2.901a59.58 59.58 0 0 1 11.984 1.125c3.644.75 6.817 1.898 9.52 3.444 2.702 1.547 4.778 3.48 6.227 5.799 1.446 2.317 2.169 5.047 2.169 8.192h-12.164a6.069 6.069 0 0 0-1.412-4.06c-.941-1.111-2.221-2.005-3.839-2.681a23.425 23.425 0 0 0-5.503-1.488 42.993 42.993 0 0 0-6.481-.471 35.251 35.251 0 0 0-8.252.908c-2.512.603-4.672 1.521-6.481 2.753a12.77 12.77 0 0 0-4.199 4.679c-.991 1.882-1.486 4.105-1.486 6.67v1.737c0 3.577.773 6.465 2.319 8.663 1.545 2.198 3.742 3.805 6.589 4.822 2.845 1.013 6.248 1.52 10.207 1.52 4.104 0 7.519-.362 10.246-1.086 2.727-.724 4.791-1.787 6.19-3.188a6.822 6.822 0 0 0 2.102-4.995v-.507h-19.043v-8.99h31.278v27.84h-7.53l-1.23-6.299a22.205 22.205 0 0 1-6.407 4.096 36.196 36.196 0 0 1-8.039 2.32 54.272 54.272 0 0 1-9.3.747ZM217.65 97c-6.372 0-11.646-.967-15.82-2.902-4.175-1.934-7.289-4.689-9.342-8.263-2.052-3.578-3.078-7.832-3.078-12.762V55.008l8.676-8.688h3.852v26.173c0 4.64 1.364 8.23 4.091 10.768 2.727 2.538 6.601 3.807 11.621 3.805 5.019 0 8.893-1.268 11.621-3.805 2.729-2.537 4.092-6.126 4.091-10.768V55.008l8.676-8.688h3.778v26.753c0 4.93-1.012 9.184-3.036 12.762-2.025 3.577-5.126 6.332-9.305 8.263-4.179 1.936-9.454 2.903-15.825 2.902ZM255.23 96.13V55.007l8.676-8.688h31.511c3.572 0 6.504.724 8.797 2.172a13.925 13.925 0 0 1 5.178 5.73 17.737 17.737 0 0 1 1.735 7.9 16.203 16.203 0 0 1-2.282 8.375c-1.52 2.588-3.825 4.63-6.915 6.127l10.355 19.503h-14.046l-8.763-17.255h-21.72v17.255l-12.526.002Zm12.528-27.116h23.965c2.025 0 3.63-.616 4.815-1.848 1.186-1.233 1.777-2.816 1.775-4.75 0-1.354-.266-2.49-.796-3.408a5.272 5.272 0 0 0-2.245-2.102c-.965-.482-2.148-.724-3.549-.725h-23.965v12.833ZM377.837 58.422l-9.847 9.858c.083.678.124 1.36.122 2.043v1.669c0 2.417-.471 4.58-1.412 6.487a12.709 12.709 0 0 1-4.019 4.75 19.05 19.05 0 0 1-6.154 2.864 29.414 29.414 0 0 1-7.821.977 29.388 29.388 0 0 1-7.808-.977 19.05 19.05 0 0 1-6.156-2.865 12.706 12.706 0 0 1-4.017-4.75c-.941-1.908-1.412-4.07-1.412-6.486v-1.669c0-2.417.471-4.568 1.412-6.452a12.81 12.81 0 0 1 4.017-4.713 19.053 19.053 0 0 1 6.156-2.864c.613-.17 1.243-.315 1.891-.435a29.288 29.288 0 0 1 3.637-.465c.744-.05 1.507-.075 2.291-.073 2.639-.026 5.27.303 7.821.98.975.266 1.93.6 2.859 1l8.118-8.129a28.892 28.892 0 0 0-1.564-.701c-4.828-2.006-10.573-3.01-17.234-3.01-6.614 0-12.346 1.003-17.196 3.01-4.849 2.007-8.579 4.93-11.187 8.772-2.603 3.84-3.904 8.493-3.904 13.956 0 5.463 1.301 10.115 3.904 13.958 2.603 3.841 6.332 6.778 11.187 8.809 4.856 2.031 10.588 3.045 17.196 3.04 6.663 0 12.408-1.013 17.234-3.04 4.827-2.027 8.543-4.963 11.149-8.809 2.603-3.844 3.904-8.497 3.904-13.958-.003-4.917-1.058-9.176-3.167-12.777ZM0 31.274V6.828h18.985a8.71 8.71 0 0 1 4.314 1.032 7.366 7.366 0 0 1 2.874 2.865 8.44 8.44 0 0 1 1.032 4.213 8.525 8.525 0 0 1-1.05 4.252 7.364 7.364 0 0 1-2.93 2.897 8.894 8.894 0 0 1-4.35 1.032H6.376v8.155H0Zm6.377-13.018h10.727c1.23 0 2.177-.285 2.84-.855.662-.57.994-1.377.995-2.418a3.334 3.334 0 0 0-.434-1.761 2.966 2.966 0 0 0-1.301-1.138 4.858 4.858 0 0 0-2.082-.408H6.394l-.017 6.58ZM44.45 31.274V6.828H64.91c1.818 0 3.31.356 4.48 1.069a6.922 6.922 0 0 1 2.634 2.808c.6 1.204.903 2.534.885 3.879a7.741 7.741 0 0 1-1.162 4.107c-.775 1.268-1.949 2.27-3.52 3.006l5.285 9.577h-7.157l-4.46-8.47H50.835v8.47h-6.386Zm6.378-13.302h12.203c1.032 0 1.85-.303 2.45-.908a3.162 3.162 0 0 0 .903-2.33 3.199 3.199 0 0 0-.406-1.673 2.645 2.645 0 0 0-1.14-1.031 4.149 4.149 0 0 0-1.807-.354H50.828v6.296ZM106.724 31.691c-3.368 0-6.286-.498-8.756-1.494-2.47-.996-4.368-2.436-5.696-4.32-1.327-1.882-1.99-4.165-1.99-6.848 0-2.682.663-4.965 1.99-6.847 1.328-1.883 3.226-3.317 5.696-4.303 2.47-.986 5.388-1.478 8.756-1.476 3.391 0 6.315.492 8.774 1.476 2.458.985 4.35 2.419 5.676 4.303 1.327 1.882 1.991 4.165 1.991 6.847 0 2.683-.664 4.966-1.991 6.848-1.328 1.883-3.22 3.322-5.676 4.32-2.457.998-5.382 1.496-8.774 1.494Zm0-4.871c1.342.013 2.68-.149 3.98-.482a9.8 9.8 0 0 0 3.134-1.405 6.303 6.303 0 0 0 2.046-2.329c.491-.988.738-2.08.72-3.184v-.818a6.77 6.77 0 0 0-.72-3.165 6.352 6.352 0 0 0-2.046-2.313 9.886 9.886 0 0 0-3.134-1.405 15.51 15.51 0 0 0-3.98-.48 15.517 15.517 0 0 0-3.982.48 9.89 9.89 0 0 0-3.134 1.405 6.348 6.348 0 0 0-2.046 2.313 6.774 6.774 0 0 0-.72 3.165v.818a6.887 6.887 0 0 0 .72 3.184 6.297 6.297 0 0 0 2.046 2.329 9.802 9.802 0 0 0 3.134 1.405c1.301.333 2.639.495 3.982.482ZM141.672 31.274V6.828h18.987a8.704 8.704 0 0 1 4.312 1.032 7.36 7.36 0 0 1 2.876 2.865 8.44 8.44 0 0 1 1.032 4.213 8.522 8.522 0 0 1-1.052 4.252 7.349 7.349 0 0 1-2.93 2.897 8.883 8.883 0 0 1-4.349 1.032h-12.497v8.155h-6.379Zm6.379-13.018h10.728c1.227 0 2.168-.284 2.836-.855.669-.572.996-1.375.996-2.418a3.33 3.33 0 0 0-.434-1.761 2.96 2.96 0 0 0-1.301-1.138 4.86 4.86 0 0 0-2.082-.408h-10.728l-.015 6.58ZM201.466 31.691c-3.392 0-6.317-.498-8.775-1.494s-4.351-2.436-5.676-4.32c-1.328-1.882-1.992-4.165-1.992-6.848 0-2.682.664-4.965 1.992-6.847 1.327-1.883 3.219-3.317 5.676-4.303 2.456-.986 5.382-1.478 8.775-1.476 3.391 0 6.316.492 8.774 1.476 2.458.985 4.35 2.419 5.676 4.303 1.327 1.882 1.991 4.165 1.991 6.847 0 2.683-.664 4.966-1.991 6.848-1.327 1.883-3.22 3.322-5.676 4.32-2.457.998-5.381 1.496-8.774 1.494Zm0-4.871c1.342.013 2.68-.149 3.98-.482a9.805 9.805 0 0 0 3.135-1.405 6.334 6.334 0 0 0 2.045-2.311 6.87 6.87 0 0 0 .72-3.202v-.818a6.74 6.74 0 0 0-.72-3.182 6.39 6.39 0 0 0-2.045-2.296 9.894 9.894 0 0 0-3.135-1.405 15.51 15.51 0 0 0-3.98-.48 15.517 15.517 0 0 0-3.982.48 9.898 9.898 0 0 0-3.134 1.405 6.38 6.38 0 0 0-2.045 2.296 6.727 6.727 0 0 0-.718 3.182v.818a6.857 6.857 0 0 0 .718 3.202 6.316 6.316 0 0 0 2.045 2.31 9.8 9.8 0 0 0 3.134 1.406c1.301.333 2.64.495 3.982.482Zm-3.687-22.09L202.056 0h6.561v.178l-6.045 4.56-4.793-.008ZM249.243 31.691a42.834 42.834 0 0 1-5.548-.336 15.9 15.9 0 0 1-4.516-1.227 7.091 7.091 0 0 1-3.024-2.474c-.711-1.054-1.067-2.4-1.069-4.035v-.178a.391.391 0 0 1 .037-.179h6.231a1.226 1.226 0 0 0-.036.32v.39a2.056 2.056 0 0 0 .921 1.762c.613.434 1.498.754 2.655.96 1.34.216 2.697.317 4.054.302.664 0 1.334-.022 2.011-.07a20.108 20.108 0 0 0 1.952-.232 8.807 8.807 0 0 0 1.678-.434c.44-.16.842-.408 1.18-.73a1.44 1.44 0 0 0 .434-1.05c0-.568-.29-1.024-.867-1.37a7.904 7.904 0 0 0-2.323-.836 37.39 37.39 0 0 0-3.28-.551 148.904 148.904 0 0 1-3.78-.533 31.99 31.99 0 0 1-3.779-.818 14.443 14.443 0 0 1-3.279-1.351 6.745 6.745 0 0 1-2.323-2.152c-.579-.878-.868-1.957-.868-3.239a5.441 5.441 0 0 1 .922-3.13 7.26 7.26 0 0 1 2.655-2.275 14.27 14.27 0 0 1 4.184-1.369 30.941 30.941 0 0 1 5.511-.445c1.843-.02 3.683.141 5.494.48 1.409.254 2.77.722 4.037 1.388a6.557 6.557 0 0 1 2.47 2.24c.559.913.846 1.968.829 3.04v.532h-6.193V13.7c0-.521-.264-.977-.794-1.368a6.306 6.306 0 0 0-2.212-.943 13.67 13.67 0 0 0-3.299-.356 21.628 21.628 0 0 0-4.017.302c-1.032.202-1.794.475-2.286.818-.492.344-.737.717-.737 1.121 0 .522.289.936.867 1.245.734.36 1.517.612 2.323.747.972.19 2.066.361 3.282.514 1.216.154 2.475.338 3.778.552 1.301.213 2.561.48 3.778.802 1.15.292 2.254.74 3.282 1.333a7.179 7.179 0 0 1 2.323 2.115c.578.843.868 1.893.868 3.15 0 1.92-.579 3.466-1.736 4.64-1.156 1.175-2.747 2.023-4.771 2.544-2.299.55-4.656.81-7.019.775ZM280.836 31.274V6.828h6.379v24.446h-6.379ZM315.526 31.274V12.03h-11.171V6.837h28.644v5.193h-11.14v19.244h-6.333ZM364.556 31.691c-3.368 0-6.286-.498-8.756-1.494-2.47-.996-4.368-2.436-5.696-4.32-1.327-1.882-1.991-4.165-1.991-6.848 0-2.682.664-4.965 1.991-6.847 1.328-1.883 3.226-3.317 5.696-4.303 2.47-.986 5.388-1.478 8.756-1.476 3.391 0 6.315.492 8.774 1.476 2.458.985 4.35 2.419 5.676 4.303 1.327 1.882 1.991 4.165 1.991 6.847 0 2.683-.664 4.966-1.991 6.848-1.328 1.883-3.22 3.322-5.676 4.32-2.457.998-5.382 1.496-8.774 1.494Zm0-4.871c1.342.013 2.68-.149 3.98-.482a9.8 9.8 0 0 0 3.134-1.405 6.303 6.303 0 0 0 2.046-2.329c.491-.988.738-2.08.72-3.184v-.818a6.77 6.77 0 0 0-.72-3.165 6.352 6.352 0 0 0-2.046-2.313 9.886 9.886 0 0 0-3.134-1.405 15.51 15.51 0 0 0-3.98-.48 15.517 15.517 0 0 0-3.982.48 9.886 9.886 0 0 0-3.134 1.405 6.352 6.352 0 0 0-2.046 2.313 6.769 6.769 0 0 0-.717 3.165v.818a6.888 6.888 0 0 0 .717 3.184 6.303 6.303 0 0 0 2.046 2.329 9.8 9.8 0 0 0 3.134 1.405c1.301.333 2.639.495 3.982.482Z"/>
    <path fill="#000" d="M353.852 74.47a4.383 4.383 0 0 1-3.102-1.286l-9.578-9.587 3.655-3.66 9.025 9.038 23.492-23.525 3.654 3.66-24.047 24.08a4.38 4.38 0 0 1-3.099 1.28Z"/>
    <path fill="url(#b)" d="M27.804 97a80.669 80.669 0 0 1-10.896-.688c-3.358-.46-6.315-1.295-8.872-2.502C5.48 92.602 3.501 90.923 2.1 88.77.699 86.621-.001 83.878 0 80.542v-.363a.818.818 0 0 1 .072-.362h12.237a2.605 2.605 0 0 0-.073.651v.8a4.241 4.241 0 0 0 1.81 3.587c1.207.895 2.942 1.546 5.206 1.955 2.632.441 5.298.647 7.967.617 1.301 0 2.616-.049 3.945-.146a36.978 36.978 0 0 0 3.837-.471 16.629 16.629 0 0 0 3.295-.906 6.505 6.505 0 0 0 2.316-1.485 2.975 2.975 0 0 0 .868-2.14c0-1.158-.567-2.088-1.7-2.79-1.134-.703-2.653-1.27-4.556-1.705-1.905-.435-4.053-.809-6.444-1.123-2.39-.314-4.863-.676-7.42-1.086a60.043 60.043 0 0 1-7.422-1.668 27.763 27.763 0 0 1-6.444-2.754 13.414 13.414 0 0 1-4.555-4.387c-1.136-1.788-1.704-3.987-1.702-6.598 0-2.415.603-4.541 1.81-6.379 1.208-1.837 2.943-3.384 5.206-4.64 2.27-1.259 5.008-2.19 8.218-2.791a58.845 58.845 0 0 1 10.826-.908c4.049 0 7.645.326 10.788.98 3.144.652 5.786 1.593 7.928 2.822 2.147 1.234 3.764 2.754 4.852 4.561a11.82 11.82 0 0 1 1.629 6.199v1.086H40.328V60.3c0-1.063-.52-1.993-1.557-2.791-1.039-.798-2.485-1.439-4.338-1.922a25.943 25.943 0 0 0-6.481-.726c-3.233 0-5.864.206-7.89.617-2.028.411-3.525.967-4.49 1.668-.966.702-1.45 1.463-1.45 2.283 0 1.064.568 1.91 1.703 2.539 1.135.628 2.654 1.135 4.555 1.52 1.906.386 4.054.737 6.444 1.051 2.39.314 4.864.688 7.422 1.123a77.19 77.19 0 0 1 7.422 1.63 25.092 25.092 0 0 1 6.444 2.72 14.232 14.232 0 0 1 4.555 4.316c1.132 1.715 1.7 3.854 1.7 6.415 0 3.91-1.134 7.063-3.402 9.46-2.27 2.398-5.395 4.126-9.377 5.184C37.612 96.463 33.018 97 27.804 97Z"/>
    <path fill="url(#c)" d="M61.035 96.13V55.007l8.676-8.688h42.295v9.86H73.559v9.789h33.957v9.715H73.559v10.513h39.026v9.932h-51.55Z"/>
    <path fill="url(#d)" d="M148.067 97c-10.039 0-17.582-2.127-22.627-6.38-5.045-4.255-7.566-10.707-7.565-19.358 0-5.656 1.291-10.405 3.874-14.247 2.582-3.843 6.323-6.73 11.222-8.664 4.9-1.933 10.778-2.9 17.631-2.901a59.58 59.58 0 0 1 11.984 1.125c3.644.75 6.817 1.898 9.52 3.444 2.702 1.547 4.778 3.48 6.227 5.799 1.446 2.317 2.169 5.047 2.169 8.192h-12.164a6.069 6.069 0 0 0-1.412-4.06c-.941-1.111-2.221-2.005-3.839-2.681a23.425 23.425 0 0 0-5.503-1.488 42.993 42.993 0 0 0-6.481-.471 35.251 35.251 0 0 0-8.252.908c-2.512.603-4.672 1.521-6.481 2.753a12.77 12.77 0 0 0-4.199 4.679c-.991 1.882-1.486 4.105-1.486 6.67v1.737c0 3.577.773 6.465 2.319 8.663 1.545 2.198 3.742 3.805 6.589 4.822 2.845 1.013 6.248 1.52 10.207 1.52 4.104 0 7.519-.362 10.246-1.086 2.727-.724 4.791-1.787 6.19-3.188a6.822 6.822 0 0 0 2.102-4.995v-.507h-19.043v-8.99h31.278v27.84h-7.53l-1.23-6.299a22.205 22.205 0 0 1-6.407 4.096 36.196 36.196 0 0 1-8.039 2.32 54.272 54.272 0 0 1-9.3.747Z"/>
    <path fill="url(#e)" d="M217.65 97c-6.372 0-11.646-.967-15.82-2.902-4.175-1.934-7.289-4.689-9.342-8.263-2.052-3.578-3.078-7.832-3.078-12.762V55.008l8.676-8.688h3.852v26.173c0 4.64 1.364 8.23 4.091 10.768 2.727 2.538 6.601 3.807 11.621 3.805 5.019 0 8.893-1.268 11.621-3.805 2.729-2.537 4.092-6.126 4.091-10.768V55.008l8.676-8.688h3.778v26.753c0 4.93-1.012 9.184-3.036 12.762-2.025 3.577-5.126 6.332-9.305 8.263-4.179 1.936-9.454 2.903-15.825 2.902Z"/>
    <path fill="url(#f)" d="M255.23 96.13V55.007l8.676-8.688h31.511c3.572 0 6.504.724 8.797 2.172a13.925 13.925 0 0 1 5.178 5.73 17.737 17.737 0 0 1 1.735 7.9 16.203 16.203 0 0 1-2.282 8.375c-1.52 2.588-3.825 4.63-6.915 6.127l10.355 19.503h-14.046l-8.763-17.255h-21.72v17.255l-12.526.002Zm12.528-27.116h23.965c2.025 0 3.63-.616 4.815-1.848 1.186-1.233 1.777-2.816 1.775-4.75 0-1.354-.266-2.49-.796-3.408a5.272 5.272 0 0 0-2.245-2.102c-.965-.482-2.148-.724-3.549-.725h-23.965v12.833Z"/>
    <path fill="url(#g)" d="m377.837 58.422-9.847 9.858c.083.678.124 1.36.122 2.043v1.669c0 2.417-.471 4.58-1.412 6.487a12.709 12.709 0 0 1-4.019 4.75 19.05 19.05 0 0 1-6.154 2.864 29.414 29.414 0 0 1-7.821.977 29.388 29.388 0 0 1-7.808-.977 19.05 19.05 0 0 1-6.156-2.865 12.706 12.706 0 0 1-4.017-4.75c-.941-1.908-1.412-4.07-1.412-6.486v-1.669c0-2.417.471-4.568 1.412-6.452a12.81 12.81 0 0 1 4.017-4.713 19.053 19.053 0 0 1 6.156-2.864c.613-.17 1.243-.315 1.891-.435a29.288 29.288 0 0 1 3.637-.465c.744-.05 1.507-.075 2.291-.073 2.639-.026 5.27.303 7.821.98.975.266 1.93.6 2.859 1l8.118-8.129a28.892 28.892 0 0 0-1.564-.701c-4.828-2.006-10.573-3.01-17.234-3.01-6.614 0-12.346 1.003-17.196 3.01-4.849 2.007-8.579 4.93-11.187 8.772-2.603 3.84-3.904 8.493-3.904 13.956 0 5.463 1.301 10.115 3.904 13.958 2.603 3.841 6.332 6.778 11.187 8.809 4.856 2.031 10.588 3.045 17.196 3.04 6.663 0 12.408-1.013 17.234-3.04 4.827-2.027 8.543-4.963 11.149-8.809 2.603-3.844 3.904-8.497 3.904-13.958-.003-4.917-1.058-9.176-3.167-12.777Z"/>
    <path fill="url(#h)" d="M0 31.274V6.828h18.985a8.71 8.71 0 0 1 4.314 1.032 7.366 7.366 0 0 1 2.874 2.865 8.44 8.44 0 0 1 1.032 4.213 8.525 8.525 0 0 1-1.05 4.252 7.364 7.364 0 0 1-2.93 2.897 8.894 8.894 0 0 1-4.35 1.032H6.376v8.155H0Zm6.377-13.018h10.727c1.23 0 2.177-.285 2.84-.855.662-.57.994-1.377.995-2.418a3.334 3.334 0 0 0-.434-1.761 2.966 2.966 0 0 0-1.301-1.138 4.858 4.858 0 0 0-2.082-.408H6.394l-.017 6.58Z"/>
    <path fill="url(#i)" d="M44.45 31.274V6.828H64.91c1.818 0 3.31.356 4.48 1.069a6.922 6.922 0 0 1 2.634 2.808c.6 1.204.903 2.534.885 3.879a7.741 7.741 0 0 1-1.162 4.107c-.775 1.268-1.949 2.27-3.52 3.006l5.285 9.577h-7.157l-4.46-8.47H50.835v8.47h-6.386Zm6.378-13.302h12.203c1.032 0 1.85-.303 2.45-.908a3.162 3.162 0 0 0 .903-2.33 3.199 3.199 0 0 0-.406-1.673 2.645 2.645 0 0 0-1.14-1.031 4.149 4.149 0 0 0-1.807-.354H50.828v6.296Z"/>
    <path fill="url(#j)" d="M106.724 31.691c-3.368 0-6.286-.498-8.756-1.494-2.47-.996-4.368-2.436-5.696-4.32-1.327-1.882-1.99-4.165-1.99-6.848 0-2.682.663-4.965 1.99-6.847 1.328-1.883 3.226-3.317 5.696-4.303 2.47-.986 5.388-1.478 8.756-1.476 3.391 0 6.315.492 8.774 1.476 2.458.985 4.35 2.419 5.676 4.303 1.327 1.882 1.991 4.165 1.991 6.847 0 2.683-.664 4.966-1.991 6.848-1.328 1.883-3.22 3.322-5.676 4.32-2.457.998-5.382 1.496-8.774 1.494Zm0-4.871c1.342.013 2.68-.149 3.98-.482a9.8 9.8 0 0 0 3.134-1.405 6.303 6.303 0 0 0 2.046-2.329c.491-.988.738-2.08.72-3.184v-.818a6.77 6.77 0 0 0-.72-3.165 6.352 6.352 0 0 0-2.046-2.313 9.886 9.886 0 0 0-3.134-1.405 15.51 15.51 0 0 0-3.98-.48 15.517 15.517 0 0 0-3.982.48 9.89 9.89 0 0 0-3.134 1.405 6.348 6.348 0 0 0-2.046 2.313 6.774 6.774 0 0 0-.72 3.165v.818a6.887 6.887 0 0 0 .72 3.184 6.297 6.297 0 0 0 2.046 2.329 9.802 9.802 0 0 0 3.134 1.405c1.301.333 2.639.495 3.982.482Z"/>
    <path fill="url(#k)" d="M141.672 31.274V6.828h18.987a8.704 8.704 0 0 1 4.312 1.032 7.36 7.36 0 0 1 2.876 2.865 8.44 8.44 0 0 1 1.032 4.213 8.522 8.522 0 0 1-1.052 4.252 7.349 7.349 0 0 1-2.93 2.897 8.883 8.883 0 0 1-4.349 1.032h-12.497v8.155h-6.379Zm6.379-13.018h10.728c1.227 0 2.168-.284 2.836-.855.669-.572.996-1.375.996-2.418a3.33 3.33 0 0 0-.434-1.761 2.96 2.96 0 0 0-1.301-1.138 4.86 4.86 0 0 0-2.082-.408h-10.728l-.015 6.58Z"/>
    <path fill="url(#l)" d="M201.466 31.691c-3.392 0-6.317-.498-8.775-1.494s-4.351-2.436-5.676-4.32c-1.328-1.882-1.992-4.165-1.992-6.848 0-2.682.664-4.965 1.992-6.847 1.327-1.883 3.219-3.317 5.676-4.303 2.456-.986 5.382-1.478 8.775-1.476 3.391 0 6.316.492 8.774 1.476 2.458.985 4.35 2.419 5.676 4.303 1.327 1.882 1.991 4.165 1.991 6.847 0 2.683-.664 4.966-1.991 6.848-1.327 1.883-3.22 3.322-5.676 4.32-2.457.998-5.381 1.496-8.774 1.494Zm0-4.871c1.342.013 2.68-.149 3.98-.482a9.805 9.805 0 0 0 3.135-1.405 6.334 6.334 0 0 0 2.045-2.311 6.87 6.87 0 0 0 .72-3.202v-.818a6.74 6.74 0 0 0-.72-3.182 6.39 6.39 0 0 0-2.045-2.296 9.894 9.894 0 0 0-3.135-1.405 15.51 15.51 0 0 0-3.98-.48 15.517 15.517 0 0 0-3.982.48 9.898 9.898 0 0 0-3.134 1.405 6.38 6.38 0 0 0-2.045 2.296 6.727 6.727 0 0 0-.718 3.182v.818a6.857 6.857 0 0 0 .718 3.202 6.316 6.316 0 0 0 2.045 2.31 9.8 9.8 0 0 0 3.134 1.406c1.301.333 2.64.495 3.982.482Zm-3.687-22.09L202.056 0h6.561v.178l-6.045 4.56-4.793-.008Z"/>
    <path fill="url(#m)" d="M249.243 31.691a42.834 42.834 0 0 1-5.548-.336 15.9 15.9 0 0 1-4.516-1.227 7.091 7.091 0 0 1-3.024-2.474c-.711-1.054-1.067-2.4-1.069-4.035v-.178a.391.391 0 0 1 .037-.179h6.231a1.226 1.226 0 0 0-.036.32v.39a2.056 2.056 0 0 0 .921 1.762c.613.434 1.498.754 2.655.96 1.34.216 2.697.317 4.054.302.664 0 1.334-.022 2.011-.07a20.108 20.108 0 0 0 1.952-.232 8.807 8.807 0 0 0 1.678-.434c.44-.16.842-.408 1.18-.73a1.44 1.44 0 0 0 .434-1.05c0-.568-.29-1.024-.867-1.37a7.904 7.904 0 0 0-2.323-.836 37.39 37.39 0 0 0-3.28-.551 148.904 148.904 0 0 1-3.78-.533 31.99 31.99 0 0 1-3.779-.818 14.443 14.443 0 0 1-3.279-1.351 6.745 6.745 0 0 1-2.323-2.152c-.579-.878-.868-1.957-.868-3.239a5.441 5.441 0 0 1 .922-3.13 7.26 7.26 0 0 1 2.655-2.275 14.27 14.27 0 0 1 4.184-1.369 30.941 30.941 0 0 1 5.511-.445c1.843-.02 3.683.141 5.494.48 1.409.254 2.77.722 4.037 1.388a6.557 6.557 0 0 1 2.47 2.24c.559.913.846 1.968.829 3.04v.532h-6.193V13.7c0-.521-.264-.977-.794-1.368a6.306 6.306 0 0 0-2.212-.943 13.67 13.67 0 0 0-3.299-.356 21.628 21.628 0 0 0-4.017.302c-1.032.202-1.794.475-2.286.818-.492.344-.737.717-.737 1.121 0 .522.289.936.867 1.245.734.36 1.517.612 2.323.747.972.19 2.066.361 3.282.514 1.216.154 2.475.338 3.778.552 1.301.213 2.561.48 3.778.802 1.15.292 2.254.74 3.282 1.333a7.179 7.179 0 0 1 2.323 2.115c.578.843.868 1.893.868 3.15 0 1.92-.579 3.466-1.736 4.64-1.156 1.175-2.747 2.023-4.771 2.544-2.299.55-4.656.81-7.019.775Z"/>
    <path fill="url(#n)" d="M280.836 31.274V6.828h6.379v24.446h-6.379Z"/>
    <path fill="url(#o)" d="M315.526 31.274V12.03h-11.171V6.837h28.644v5.193h-11.14v19.244h-6.333Z"/>
    <path fill="url(#p)" d="M364.556 31.691c-3.368 0-6.286-.498-8.756-1.494-2.47-.996-4.368-2.436-5.696-4.32-1.327-1.882-1.991-4.165-1.991-6.848 0-2.682.664-4.965 1.991-6.847 1.328-1.883 3.226-3.317 5.696-4.303 2.47-.986 5.388-1.478 8.756-1.476 3.391 0 6.315.492 8.774 1.476 2.458.985 4.35 2.419 5.676 4.303 1.327 1.882 1.991 4.165 1.991 6.847 0 2.683-.664 4.966-1.991 6.848-1.328 1.883-3.22 3.322-5.676 4.32-2.457.998-5.382 1.496-8.774 1.494Zm0-4.871c1.342.013 2.68-.149 3.98-.482a9.8 9.8 0 0 0 3.134-1.405 6.303 6.303 0 0 0 2.046-2.329c.491-.988.738-2.08.72-3.184v-.818a6.77 6.77 0 0 0-.72-3.165 6.352 6.352 0 0 0-2.046-2.313 9.886 9.886 0 0 0-3.134-1.405 15.51 15.51 0 0 0-3.98-.48 15.517 15.517 0 0 0-3.982.48 9.886 9.886 0 0 0-3.134 1.405 6.352 6.352 0 0 0-2.046 2.313 6.769 6.769 0 0 0-.717 3.165v.818a6.888 6.888 0 0 0 .717 3.184 6.303 6.303 0 0 0 2.046 2.329 9.8 9.8 0 0 0 3.134 1.405c1.301.333 2.639.495 3.982.482Z"/>
    <path fill="#E8AF12" d="M353.852 74.47a4.383 4.383 0 0 1-3.102-1.286l-9.578-9.587 3.655-3.66 9.025 9.038 23.492-23.525 3.654 3.66-24.047 24.08a4.38 4.38 0 0 1-3.099 1.28Z"/>
  </g>
  <defs>
    <linearGradient id="b" x1="190.498" x2="190.498" y1="0" y2="97" gradientUnits="userSpaceOnUse">
      <stop stop-color="#fff"/>
      <stop offset="1" stop-color="#E4EFF2"/>
    </linearGradient>
    <linearGradient id="c" x1="190.496" x2="190.496" y1="0" y2="97" gradientUnits="userSpaceOnUse">
      <stop stop-color="#fff"/>
      <stop offset="1" stop-color="#E4EFF2"/>
    </linearGradient>
    <linearGradient id="d" x1="190.496" x2="190.496" y1="0" y2="97" gradientUnits="userSpaceOnUse">
      <stop stop-color="#fff"/>
      <stop offset="1" stop-color="#E4EFF2"/>
    </linearGradient>
    <linearGradient id="e" x1="190.497" x2="190.497" y1="0" y2="97" gradientUnits="userSpaceOnUse">
      <stop stop-color="#fff"/>
      <stop offset="1" stop-color="#E4EFF2"/>
    </linearGradient>
    <linearGradient id="f" x1="190.5" x2="190.5" y1="0" y2="97" gradientUnits="userSpaceOnUse">
      <stop stop-color="#fff"/>
      <stop offset="1" stop-color="#E4EFF2"/>
    </linearGradient>
    <linearGradient id="g" x1="190.5" x2="190.5" y1="0" y2="97" gradientUnits="userSpaceOnUse">
      <stop stop-color="#fff"/>
      <stop offset="1" stop-color="#E4EFF2"/>
    </linearGradient>
    <linearGradient id="h" x1="190.498" x2="190.498" y1="0" y2="97" gradientUnits="userSpaceOnUse">
      <stop stop-color="#fff"/>
      <stop offset="1" stop-color="#E4EFF2"/>
    </linearGradient>
    <linearGradient id="i" x1="190.498" x2="190.498" y1="0" y2="97" gradientUnits="userSpaceOnUse">
      <stop stop-color="#fff"/>
      <stop offset="1" stop-color="#E4EFF2"/>
    </linearGradient>
    <linearGradient id="j" x1="190.498" x2="190.498" y1="0" y2="97" gradientUnits="userSpaceOnUse">
      <stop stop-color="#fff"/>
      <stop offset="1" stop-color="#E4EFF2"/>
    </linearGradient>
    <linearGradient id="k" x1="190.5" x2="190.5" y1="0" y2="97" gradientUnits="userSpaceOnUse">
      <stop stop-color="#fff"/>
      <stop offset="1" stop-color="#E4EFF2"/>
    </linearGradient>
    <linearGradient id="l" x1="190.498" x2="190.498" y1="0" y2="97" gradientUnits="userSpaceOnUse">
      <stop stop-color="#fff"/>
      <stop offset="1" stop-color="#E4EFF2"/>
    </linearGradient>
    <linearGradient id="m" x1="190.499" x2="190.499" y1="0" y2="97" gradientUnits="userSpaceOnUse">
      <stop stop-color="#fff"/>
      <stop offset="1" stop-color="#E4EFF2"/>
    </linearGradient>
    <linearGradient id="n" x1="190.499" x2="190.499" y1="0" y2="97" gradientUnits="userSpaceOnUse">
      <stop stop-color="#fff"/>
      <stop offset="1" stop-color="#E4EFF2"/>
    </linearGradient>
    <linearGradient id="o" x1="190.498" x2="190.498" y1="0" y2="97" gradientUnits="userSpaceOnUse">
      <stop stop-color="#fff"/>
      <stop offset="1" stop-color="#E4EFF2"/>
    </linearGradient>
    <linearGradient id="p" x1="190.497" x2="190.497" y1="0" y2="97" gradientUnits="userSpaceOnUse">
      <stop stop-color="#fff"/>
      <stop offset="1" stop-color="#E4EFF2"/>
    </linearGradient>
    <clipPath id="a">
      <path fill="#fff" d="M0 0h381v97H0z"/>
    </clipPath>
  </defs>
</svg>
