<svg xmlns="http://www.w3.org/2000/svg" fill="none" viewBox="0 0 512 449">
    <path fill="url(#alert)"
        d="m505.6 378.573-209.707-355.2C287.573 9.08 272.64.333 256 .333s-31.36 8.533-39.68 23.04L6.4 378.573c-8.533 14.72-8.533 32 0 46.507 8.32 14.506 23.253 23.04 39.893 23.04H465.92c16.64 0 31.573-8.747 39.893-23.04 8.32-14.507 8.32-32 0-46.507h-.213Zm-18.347 36.053C482.773 422.306 474.88 427 465.92 427H46.08c-8.96 0-16.853-4.694-21.333-12.374-4.48-7.893-4.48-17.28 0-25.173L234.667 34.04c8.96-15.574 33.706-15.574 42.666 0l209.92 355.2c4.48 7.893 4.48 17.28 0 25.173v.213Zm-220.586-136.96h-21.334v-128h21.334v128Zm10.666 64c0 11.734-9.6 21.334-21.333 21.334-11.733 0-21.333-9.6-21.333-21.334 0-11.733 9.6-21.333 21.333-21.333 11.733 0 21.333 9.6 21.333 21.333Z" />
    <defs>
        <linearGradient id="alert" x1="256.027" x2="256.027" y1=".333" y2="448.12"
            gradientUnits="userSpaceOnUse">
            <stop stop-color="#E8AF12" />
            <stop offset="1" stop-color="#E8AF12" stop-opacity="0" />
        </linearGradient>
    </defs>
</svg>
