<svg xmlns="http://www.w3.org/2000/svg" fill="none" viewBox="0 0 35 36">
    <path fill="currentColor" d="m25.65 13.018 1.024 1.036-8.806 8.723a3.632 3.632 0 0 1-2.564 1.049 3.634 3.634 0 0 1-2.55-1.034L8.326 18.43l1.022-1.038 4.425 4.36a2.2 2.2 0 0 0 3.068-.01l8.807-8.724ZM35 18c0 9.65-7.85 17.5-17.5 17.5S0 27.65 0 18 7.85.5 17.5.5 35 8.35 35 18Zm-1.458 0c0-8.845-7.197-16.042-16.042-16.042C8.655 1.958 1.458 9.155 1.458 18c0 8.845 7.197 16.042 16.042 16.042 8.845 0 16.042-7.197 16.042-16.042Z"/>
</svg>
