<svg xmlns="http://www.w3.org/2000/svg" fill="none" viewBox="0 0 26 26">
    <path fill="currentColor"
        d="m19.043 9.124.728.735-6.25 6.191c-.5.496-1.16.744-1.82.744-.655 0-1.31-.244-1.81-.733L6.75 12.965l.725-.737 3.14 3.095a1.561 1.561 0 0 0 2.178-.008l6.25-6.19Zm6.637 3.536c0 6.848-5.572 12.42-12.42 12.42C6.41 25.08.84 19.508.84 12.66.84 5.81 6.41.24 13.26.24c6.848 0 12.42 5.571 12.42 12.42Zm-1.035 0c0-6.278-5.108-11.385-11.385-11.385S1.875 6.382 1.875 12.66c0 6.277 5.108 11.385 11.385 11.385s11.385-5.108 11.385-11.385Z" />
</svg>
