<svg xmlns="http://www.w3.org/2000/svg" fill="none" viewBox="0 0 41 40">
    <path fill="currentColor"
        d="M20.5 3.603c5.34 0 5.973.02 8.082.117 2.18.1 4.425.597 6.013 2.185 1.603 1.603 2.085 3.827 2.185 6.013.097 2.109.117 2.742.117 8.082 0 5.34-.02 5.973-.117 8.082-.098 2.168-.607 4.435-2.185 6.013-1.603 1.603-3.825 2.085-6.013 2.185-2.109.097-2.742.117-8.082.117-5.34 0-5.973-.02-8.082-.117-2.151-.098-4.448-.618-6.013-2.185C4.81 32.5 4.32 30.255 4.22 28.082c-.097-2.109-.117-2.742-.117-8.082 0-5.34.02-5.973.117-8.082.098-2.16.612-4.44 2.185-6.013 1.6-1.6 3.832-2.085 6.013-2.185 2.109-.097 2.742-.117 8.082-.117ZM20.5 0c-5.432 0-6.113.023-8.247.12-3.091.142-6.161 1.002-8.396 3.237C1.613 5.6.762 8.663.62 11.753.523 13.887.5 14.568.5 20s.023 6.113.12 8.247c.142 3.088 1.005 6.166 3.237 8.396 2.241 2.242 5.31 3.095 8.396 3.237 2.134.097 2.815.12 8.247.12s6.113-.023 8.247-.12c3.09-.142 6.163-1.003 8.396-3.237 2.245-2.245 3.095-5.306 3.237-8.396.097-2.134.12-2.815.12-8.247s-.023-6.113-.12-8.247c-.142-3.091-1.003-6.163-3.237-8.396C34.905 1.118 31.828.26 28.747.12 26.613.023 25.932 0 20.5 0Z" />
    <path fill="currentColor"
        d="M20.5 9.73c-5.672 0-10.27 4.598-10.27 10.27s4.598 10.27 10.27 10.27S30.77 25.672 30.77 20 26.172 9.73 20.5 9.73Zm0 16.937a6.667 6.667 0 1 1 0-13.334 6.667 6.667 0 0 1 0 13.334Z" />
    <path fill="currentColor" d="M31.177 11.723a2.4 2.4 0 1 0 0-4.8 2.4 2.4 0 0 0 0 4.8Z" />
</svg>
