<svg xmlns="http://www.w3.org/2000/svg" fill="none" viewBox="0 0 41 40">
    <path fill="currentColor"
        d="M34.583 34.083h-5.927v-9.282c0-2.214-.04-5.062-3.083-5.062-3.087 0-3.56 2.41-3.56 4.902v9.442h-5.925V14.995h5.69v2.607h.08a6.238 6.238 0 0 1 5.613-3.082c6.008 0 7.114 3.952 7.114 9.09l-.002 10.473ZM9.4 12.385a3.439 3.439 0 1 1 0-6.88 3.439 3.439 0 1 1 0 6.88Zm2.962 21.698H6.43V14.995h5.933v19.088ZM37.537.003H3.451A2.92 2.92 0 0 0 .5 2.885v34.227a2.92 2.92 0 0 0 2.95 2.885h34.087a2.926 2.926 0 0 0 2.963-2.885V2.884A2.926 2.926 0 0 0 37.537 0" />

</svg>
